<svg xmlns="http://www.w3.org/2000/svg" viewBox="0 0 36 24" aria-hidden="true">
  <!-- Blue stripe -->
  <rect width="36" height="12" fill="#0038A8"/>
  <!-- Red stripe -->
  <rect y="12" width="36" height="12" fill="#CE1126"/>
  <!-- White triangle -->
  <polygon points="0,0 16,12 0,24" fill="#FFFFFF"/>
  <!-- Sun (golden yellow) -->
  <circle cx="5.5" cy="12" r="2.2" fill="#FCD116"/>
  <!-- Sun rays -->
  <g fill="#FCD116">
    <polygon points="5.5,8.2 5.9,9.5 5.1,9.5"/>
    <polygon points="5.5,15.8 5.9,14.5 5.1,14.5"/>
    <polygon points="2.2,10.1 3.4,10.7 3,9.9"/>
    <polygon points="8.8,10.1 7.6,10.7 8,9.9"/>
    <polygon points="2.2,13.9 3.4,13.3 3,14.1"/>
    <polygon points="8.8,13.9 7.6,13.3 8,14.1"/>
    <polygon points="3,10.2 3.8,11 3.2,11.4"/>
    <polygon points="8,10.2 7.2,11 7.8,11.4"/>
    <polygon points="3,13.8 3.8,13 3.2,12.6"/>
    <polygon points="8,13.8 7.2,13 7.8,12.6"/>
  </g>
  <!-- Three stars -->
  <polygon points="2.5,5 2.7,5.6 3.3,5.6 2.8,6 3,6.6 2.5,6.2 2,6.6 2.2,6 1.7,5.6 2.3,5.6" fill="#FCD116"/>
  <polygon points="2.5,19 2.7,19.6 3.3,19.6 2.8,20 3,20.6 2.5,20.2 2,20.6 2.2,20 1.7,19.6 2.3,19.6" fill="#FCD116"/>
  <polygon points="12,12 12.2,12.6 12.8,12.6 12.3,13 12.5,13.6 12,13.2 11.5,13.6 11.7,13 11.2,12.6 11.8,12.6" fill="#FCD116"/>
</svg>
